<?xml version="1.0"?>
<COLLADA xmlns="http://www.collada.org/2005/11/COLLADASchema" version="1.4.1">
	<asset>
		<contributor>
			<author>Assimp</author>
			<authoring_tool>Assimp Exporter</authoring_tool>
		</contributor>
		<created>2022-08-01T11:57:29</created>
		<modified>2022-08-01T11:57:29</modified>
		<unit name="meter" meter="1.000000" />
		<up_axis>Y_UP</up_axis>
	</asset>
	<library_effects>
		<effect id="sidewyas_posts-fx" name="sidewyas_posts">
			<profile_COMMON>
				<technique sid="standard">
					<phong>
						<diffuse>
							<color sid="diffuse">0.500000   0.500000   0.500000   1.000000</color>
						</diffuse>
					</phong>
				</technique>
			</profile_COMMON>
		</effect>
		<effect id="vertical_posts-fx" name="vertical_posts">
			<profile_COMMON>
				<technique sid="standard">
					<phong>
						<diffuse>
							<color sid="diffuse">0.500000   0.500000   0.500000   1.000000</color>
						</diffuse>
					</phong>
				</technique>
			</profile_COMMON>
		</effect>
		<effect id="roof-fx" name="roof">
			<profile_COMMON>
				<technique sid="standard">
					<phong>
						<diffuse>
							<color sid="diffuse">0.500000   0.500000   0.500000   1.000000</color>
						</diffuse>
					</phong>
				</technique>
			</profile_COMMON>
		</effect>
		<effect id="horizontal_post-fx" name="horizontal_post">
			<profile_COMMON>
				<technique sid="standard">
					<phong>
						<diffuse>
							<color sid="diffuse">0.500000   0.500000   0.500000   1.000000</color>
						</diffuse>
					</phong>
				</technique>
			</profile_COMMON>
		</effect>
		<effect id="top_posts-fx" name="top_posts">
			<profile_COMMON>
				<technique sid="standard">
					<phong>
						<diffuse>
							<color sid="diffuse">0.500000   0.500000   0.500000   1.000000</color>
						</diffuse>
					</phong>
				</technique>
			</profile_COMMON>
		</effect>
		<effect id="sign_background-fx" name="sign_background">
			<profile_COMMON>
				<technique sid="standard">
					<phong>
						<diffuse>
							<color sid="diffuse">0.500000   0.500000   0.500000   1.000000</color>
						</diffuse>
					</phong>
				</technique>
			</profile_COMMON>
		</effect>
	</library_effects>
	<library_materials>
		<material id="sidewyas_posts" name="sidewyas_posts">
			<instance_effect url="#sidewyas_posts-fx"/>
		</material>
		<material id="vertical_posts" name="vertical_posts">
			<instance_effect url="#vertical_posts-fx"/>
		</material>
		<material id="roof" name="roof">
			<instance_effect url="#roof-fx"/>
		</material>
		<material id="horizontal_post" name="horizontal_post">
			<instance_effect url="#horizontal_post-fx"/>
		</material>
		<material id="top_posts" name="top_posts">
			<instance_effect url="#top_posts-fx"/>
		</material>
		<material id="sign_background" name="sign_background">
			<instance_effect url="#sign_background-fx"/>
		</material>
	</library_materials>
	<library_geometries>
		<geometry id="meshId0" name="meshId0_name" >
			<mesh>
				<source id="meshId0-positions" name="meshId0-positions">
					<float_array id="meshId0-positions-array" count="144"> 
						-9.690121 7.117232 11.469112 8.676162 7.117232 11.469112 8.676162 7.627926 11.469112 -9.690121 7.627926 11.469112 -9.690121 7.627926 11.469112 8.676162 7.627926 11.469112 8.676162 9.992612 5.000000 -9.690121 9.992612 5.000000 -9.690121 9.992612 5.000000 8.676162 9.992612 5.000000 8.676162 9.481916 5.000000 -9.690121 9.481916 5.000000 -9.690121 9.481916 5.000000 8.676162 9.481916 5.000000 8.676162 7.117232 11.469112 -9.690121 7.117232 11.469112 8.676162 7.117232 11.469112 8.676162 9.481916 5.000000 8.676162 9.992612 5.000000 8.676162 7.627926 11.469112 -9.690121 9.481916 5.000000 -9.690121 7.117232 11.469112 -9.690121 7.627926 11.469112 -9.690121 9.992612 5.000000 8.676161 7.117232 -1.469419 -9.690122 7.117232 -1.469419 -9.690122 7.627926 -1.469419 8.676161 7.627926 -1.469419 8.676161 7.627926 -1.469419 -9.690122 7.627926 -1.469419 -9.690122 9.992612 4.999694 8.676161 9.992612 4.999694 8.676161 9.992612 4.999694 -9.690122 9.992612 4.999694 -9.690122 9.481916 4.999694 8.676161 9.481916 4.999694 8.676161 9.481916 4.999694 -9.690122 9.481916 4.999694 -9.690122 7.117232 -1.469419 8.676161 7.117232 -1.469419 -9.690122 7.117232 -1.469419 -9.690122 9.481916 4.999694 -9.690122 9.992612 4.999694 -9.690122 7.627926 -1.469419 8.676161 9.481916 4.999694 8.676161 7.117232 -1.469419 8.676161 7.627926 -1.469419 8.676161 9.992612 4.999694 
					</float_array>
					<technique_common>
						<accessor count="48" offset="0" source="#meshId0-positions-array" stride="3">
							<param name="X" type="float" />
							<param name="Y" type="float" />
							<param name="Z" type="float" />
						</accessor>
					</technique_common>
				</source>
				<source id="meshId0-normals" name="meshId0-normals">
					<float_array id="meshId0-normals-array" count="144"> 
						0.000000 0.000000 1.000000 0.000000 0.000000 1.000000 0.000000 0.000000 1.000000 0.000000 0.000000 1.000000 0.000000 0.939219 0.343317 0.000000 0.939219 0.343317 0.000000 0.939219 0.343317 0.000000 0.939219 0.343317 0.000000 0.000000 -1.000000 0.000000 0.000000 -1.000000 0.000000 0.000000 -1.000000 0.000000 0.000000 -1.000000 0.000000 -0.939220 -0.343317 0.000000 -0.939220 -0.343317 0.000000 -0.939220 -0.343317 0.000000 -0.939220 -0.343317 1.000000 0.000000 0.000000 1.000000 0.000000 0.000000 1.000000 0.000000 0.000000 1.000000 0.000000 0.000000 -1.000000 0.000000 0.000000 -1.000000 0.000000 0.000000 -1.000000 0.000000 0.000000 -1.000000 0.000000 0.000000 0.000000 0.000000 -1.000000 0.000000 0.000000 -1.000000 0.000000 0.000000 -1.000000 0.000000 0.000000 -1.000000 0.000000 0.939219 -0.343317 0.000000 0.939219 -0.343317 0.000000 0.939219 -0.343317 0.000000 0.939219 -0.343317 0.000000 0.000000 1.000000 0.000000 0.000000 1.000000 0.000000 0.000000 1.000000 0.000000 0.000000 1.000000 0.000000 -0.939220 0.343317 0.000000 -0.939220 0.343317 0.000000 -0.939220 0.343317 0.000000 -0.939220 0.343317 -1.000000 0.000000 0.000000 -1.000000 0.000000 0.000000 -1.000000 0.000000 0.000000 -1.000000 0.000000 0.000000 1.000000 0.000000 0.000000 1.000000 0.000000 0.000000 1.000000 0.000000 0.000000 1.000000 0.000000 0.000000 
					</float_array>
					<technique_common>
						<accessor count="48" offset="0" source="#meshId0-normals-array" stride="3">
							<param name="X" type="float" />
							<param name="Y" type="float" />
							<param name="Z" type="float" />
						</accessor>
					</technique_common>
				</source>
				<source id="meshId0-tangents" name="meshId0-tangents">
					<float_array id="meshId0-tangents-array" count="144"> 
						0.000000 1.000000 0.000000 0.000000 1.000000 0.000000 0.000000 1.000000 0.000000 0.000000 1.000000 0.000000 0.010066 0.343300 -0.939172 0.010066 0.343300 -0.939172 0.010066 0.343300 -0.939172 0.010066 0.343300 -0.939172 0.000000 -1.000000 0.000000 0.000000 -1.000000 0.000000 0.000000 -1.000000 0.000000 0.000000 -1.000000 0.000000 0.010066 -0.343300 0.939172 0.010066 -0.343300 0.939172 0.010066 -0.343300 0.939172 0.010066 -0.343300 0.939172 0.000000 1.000000 0.000000 0.000000 1.000000 0.000000 0.000000 1.000000 0.000000 0.000000 1.000000 0.000000 0.000000 1.000000 0.000000 0.000000 1.000000 0.000000 0.000000 1.000000 0.000000 0.000000 1.000000 0.000000 0.000000 -1.000000 0.000000 0.000000 -1.000000 0.000000 0.000000 -1.000000 0.000000 0.000000 -1.000000 0.000000 0.010066 -0.343300 -0.939172 0.010066 -0.343300 -0.939172 0.010066 -0.343300 -0.939172 0.010066 -0.343300 -0.939172 0.000000 1.000000 0.000000 0.000000 1.000000 0.000000 0.000000 1.000000 0.000000 0.000000 1.000000 0.000000 0.010066 0.343300 0.939172 0.010066 0.343300 0.939172 0.010066 0.343300 0.939172 0.010066 0.343300 0.939172 0.000000 1.000000 0.000000 0.000000 1.000000 0.000000 0.000000 1.000000 0.000000 0.000000 1.000000 0.000000 0.000000 1.000000 0.000000 0.000000 1.000000 0.000000 0.000000 1.000000 0.000000 0.000000 1.000000 0.000000 
					</float_array>
					<technique_common>
						<accessor count="48" offset="0" source="#meshId0-tangents-array" stride="3">
							<param name="X" type="float" />
							<param name="Y" type="float" />
							<param name="Z" type="float" />
						</accessor>
					</technique_common>
				</source>
				<source id="meshId0-bitangents" name="meshId0-bitangents">
					<float_array id="meshId0-bitangents-array" count="144"> 
						-1.000000 0.000000 0.000000 -1.000000 0.000000 0.000000 -1.000000 0.000000 0.000000 -1.000000 0.000000 0.000000 -0.999949 0.003456 -0.009454 -0.999949 0.003456 -0.009454 -0.999949 0.003456 -0.009454 -0.999949 0.003456 -0.009454 -1.000000 -0.000000 -0.000000 -1.000000 -0.000000 -0.000000 -1.000000 -0.000000 -0.000000 -1.000000 -0.000000 -0.000000 -0.999949 -0.003456 0.009454 -0.999949 -0.003456 0.009454 -0.999949 -0.003456 0.009454 -0.999949 -0.003456 0.009454 0.000000 0.000000 1.000000 0.000000 0.000000 1.000000 0.000000 0.000000 1.000000 0.000000 0.000000 1.000000 0.000000 0.000000 -1.000000 0.000000 0.000000 -1.000000 0.000000 0.000000 -1.000000 0.000000 0.000000 -1.000000 -1.000000 -0.000000 -0.000000 -1.000000 -0.000000 -0.000000 -1.000000 -0.000000 -0.000000 -1.000000 -0.000000 -0.000000 -0.999949 -0.003456 -0.009454 -0.999949 -0.003456 -0.009454 -0.999949 -0.003456 -0.009454 -0.999949 -0.003456 -0.009454 -1.000000 0.000000 0.000000 -1.000000 0.000000 0.000000 -1.000000 0.000000 0.000000 -1.000000 0.000000 0.000000 -0.999949 0.003456 0.009454 -0.999949 0.003456 0.009454 -0.999949 0.003456 0.009454 -0.999949 0.003456 0.009454 0.000000 0.000000 -1.000000 0.000000 0.000000 -1.000000 0.000000 0.000000 -1.000000 0.000000 0.000000 -1.000000 0.000000 0.000000 1.000000 0.000000 0.000000 1.000000 0.000000 0.000000 1.000000 0.000000 0.000000 1.000000 
					</float_array>
					<technique_common>
						<accessor count="48" offset="0" source="#meshId0-bitangents-array" stride="3">
							<param name="X" type="float" />
							<param name="Y" type="float" />
							<param name="Z" type="float" />
						</accessor>
					</technique_common>
				</source>
				<source id="meshId0-tex0" name="meshId0-tex0">
					<float_array id="meshId0-tex0-array" count="96"> 
						0.975012 0.443805 0.975012 0.010141 0.987071 0.010141 0.987071 0.443805 0.347947 0.443782 0.352312 0.010140 0.514937 0.011777 0.510572 0.445419 0.946071 0.718462 0.946071 0.284798 0.958129 0.284798 0.958129 0.718462 0.516772 0.443782 0.521137 0.010140 0.683762 0.011777 0.679397 0.445419 0.391359 0.597696 0.447194 0.444948 0.459252 0.444948 0.403417 0.597696 0.447194 0.750445 0.391359 0.597696 0.403417 0.597696 0.459252 0.750445 0.972600 0.443805 0.972600 0.877468 0.960541 0.877468 0.960541 0.443805 0.346112 0.011777 0.341746 0.445419 0.179121 0.443782 0.183486 0.010140 0.972600 0.010141 0.972600 0.443805 0.960541 0.443805 0.960541 0.010141 0.177286 0.011777 0.172921 0.445419 0.010296 0.443782 0.014661 0.010140 0.101944 0.628003 0.157779 0.475255 0.169837 0.475255 0.114003 0.628003 0.066131 0.766029 0.010296 0.613281 0.022355 0.613281 0.078189 0.766029 
					</float_array>
					<technique_common>
						<accessor count="48" offset="0" source="#meshId0-tex0-array" stride="2">
							<param name="S" type="float" />
							<param name="T" type="float" />
						</accessor>
					</technique_common>
				</source>
				<vertices id="meshId0-vertices">
					<input semantic="POSITION" source="#meshId0-positions" />
				</vertices>
				<polylist count="24" material="defaultMaterial">
					<input offset="0" semantic="VERTEX" source="#meshId0-vertices" />
					<input offset="0" semantic="NORMAL" source="#meshId0-normals" />
					<input offset="0" semantic="TANGENT" source="#meshId0-tangents" />
					<input offset="0" semantic="BINORMAL" source="#meshId0-bitangents" />
					<input offset="0" semantic="TEXCOORD" source="#meshId0-tex0" set="0" />
					<vcount>
						3 3 3 3 3 3 3 3 3 3 3 3 3 3 3 3 3 3 3 3 3 3 3 3 
					</vcount>
					<p>
						3 0 1 1 2 3 7 4 5 5 6 7 11 8 9 9 10 11 15 12 13 13 14 15 19 16 17 17 18 19 23 20 21 21 22 23 27 24 25 25 26 27 31 28 29 29 30 31 35 32 33 33 34 35 39 36 37 37 38 39 43 40 41 41 42 43 47 44 45 45 46 47 
					</p>
				</polylist>
			</mesh>
		</geometry>
		<geometry id="meshId1" name="meshId1_name" >
			<mesh>
				<source id="meshId1-positions" name="meshId1-positions">
					<float_array id="meshId1-positions-array" count="72"> 
						-7.541514 -4.476816 5.537202 7.541514 -4.476816 5.537202 7.541514 -3.402412 5.537202 -7.541514 -3.402412 5.537202 -7.541514 -3.402412 5.537202 7.541514 -3.402412 5.537202 7.541514 -3.402412 4.462798 -7.541514 -3.402412 4.462798 -7.541514 -3.402412 4.462798 7.541514 -3.402412 4.462798 7.541514 -4.476816 4.462798 -7.541514 -4.476816 4.462798 -7.541514 -4.476816 4.462798 7.541514 -4.476816 4.462798 7.541514 -4.476816 5.537202 -7.541514 -4.476816 5.537202 7.541514 -4.476816 5.537202 7.541514 -4.476816 4.462798 7.541514 -3.402412 4.462798 7.541514 -3.402412 5.537202 -7.541514 -4.476816 4.462798 -7.541514 -4.476816 5.537202 -7.541514 -3.402412 5.537202 -7.541514 -3.402412 4.462798 
					</float_array>
					<technique_common>
						<accessor count="24" offset="0" source="#meshId1-positions-array" stride="3">
							<param name="X" type="float" />
							<param name="Y" type="float" />
							<param name="Z" type="float" />
						</accessor>
					</technique_common>
				</source>
				<source id="meshId1-normals" name="meshId1-normals">
					<float_array id="meshId1-normals-array" count="72"> 
						0.000000 0.000000 1.000000 0.000000 0.000000 1.000000 0.000000 0.000000 1.000000 0.000000 0.000000 1.000000 0.000000 1.000000 0.000000 0.000000 1.000000 0.000000 0.000000 1.000000 0.000000 0.000000 1.000000 0.000000 0.000000 0.000000 -1.000000 0.000000 0.000000 -1.000000 0.000000 0.000000 -1.000000 0.000000 0.000000 -1.000000 0.000000 -1.000000 0.000000 0.000000 -1.000000 0.000000 0.000000 -1.000000 0.000000 0.000000 -1.000000 0.000000 1.000000 0.000000 0.000000 1.000000 0.000000 0.000000 1.000000 0.000000 0.000000 1.000000 0.000000 0.000000 -1.000000 0.000000 0.000000 -1.000000 0.000000 0.000000 -1.000000 0.000000 0.000000 -1.000000 0.000000 0.000000 
					</float_array>
					<technique_common>
						<accessor count="24" offset="0" source="#meshId1-normals-array" stride="3">
							<param name="X" type="float" />
							<param name="Y" type="float" />
							<param name="Z" type="float" />
						</accessor>
					</technique_common>
				</source>
				<source id="meshId1-tangents" name="meshId1-tangents">
					<float_array id="meshId1-tangents-array" count="72"> 
						0.000000 1.000000 0.000000 0.000000 1.000000 0.000000 0.000000 1.000000 0.000000 0.000000 1.000000 0.000000 0.000000 0.000000 -1.000000 0.000000 0.000000 -1.000000 0.000000 0.000000 -1.000000 0.000000 0.000000 -1.000000 0.000000 -1.000000 0.000000 0.000000 -1.000000 0.000000 0.000000 -1.000000 0.000000 0.000000 -1.000000 0.000000 0.000000 0.000000 1.000000 0.000000 0.000000 1.000000 0.000000 0.000000 1.000000 0.000000 0.000000 1.000000 0.000000 0.000000 -1.000000 0.000000 0.000000 -1.000000 0.000000 0.000000 -1.000000 0.000000 0.000000 -1.000000 0.000000 0.000000 1.000000 0.000000 0.000000 1.000000 0.000000 0.000000 1.000000 0.000000 0.000000 1.000000 
					</float_array>
					<technique_common>
						<accessor count="24" offset="0" source="#meshId1-tangents-array" stride="3">
							<param name="X" type="float" />
							<param name="Y" type="float" />
							<param name="Z" type="float" />
						</accessor>
					</technique_common>
				</source>
				<source id="meshId1-bitangents" name="meshId1-bitangents">
					<float_array id="meshId1-bitangents-array" count="72"> 
						-1.000000 0.000000 0.000000 -1.000000 0.000000 0.000000 -1.000000 0.000000 0.000000 -1.000000 0.000000 0.000000 -1.000000 0.000000 0.000000 -1.000000 0.000000 0.000000 -1.000000 0.000000 0.000000 -1.000000 0.000000 0.000000 -1.000000 -0.000000 -0.000000 -1.000000 -0.000000 -0.000000 -1.000000 -0.000000 -0.000000 -1.000000 -0.000000 -0.000000 -1.000000 0.000000 0.000000 -1.000000 0.000000 0.000000 -1.000000 0.000000 0.000000 -1.000000 0.000000 0.000000 0.000000 1.000000 0.000000 0.000000 1.000000 0.000000 0.000000 1.000000 0.000000 0.000000 1.000000 0.000000 0.000000 1.000000 0.000000 0.000000 1.000000 0.000000 0.000000 1.000000 0.000000 0.000000 1.000000 0.000000 
					</float_array>
					<technique_common>
						<accessor count="24" offset="0" source="#meshId1-bitangents-array" stride="3">
							<param name="X" type="float" />
							<param name="Y" type="float" />
							<param name="Z" type="float" />
						</accessor>
					</technique_common>
				</source>
				<source id="meshId1-tex0" name="meshId1-tex0">
					<float_array id="meshId1-tex0-array" count="48"> 
						0.830305 0.722420 0.830305 0.366280 0.855673 0.366280 0.855673 0.722420 0.830305 0.366281 0.830305 0.010141 0.855673 0.010141 0.855673 0.366281 0.801363 0.366280 0.801363 0.010141 0.826732 0.010141 0.826732 0.366280 0.801363 0.722420 0.801363 0.366280 0.826732 0.366280 0.826732 0.722420 0.010296 0.471270 0.035665 0.471270 0.035665 0.496639 0.010296 0.496639 0.039237 0.471562 0.064606 0.471562 0.064606 0.496930 0.039237 0.496930 
					</float_array>
					<technique_common>
						<accessor count="24" offset="0" source="#meshId1-tex0-array" stride="2">
							<param name="S" type="float" />
							<param name="T" type="float" />
						</accessor>
					</technique_common>
				</source>
				<vertices id="meshId1-vertices">
					<input semantic="POSITION" source="#meshId1-positions" />
				</vertices>
				<polylist count="12" material="defaultMaterial">
					<input offset="0" semantic="VERTEX" source="#meshId1-vertices" />
					<input offset="0" semantic="NORMAL" source="#meshId1-normals" />
					<input offset="0" semantic="TANGENT" source="#meshId1-tangents" />
					<input offset="0" semantic="BINORMAL" source="#meshId1-bitangents" />
					<input offset="0" semantic="TEXCOORD" source="#meshId1-tex0" set="0" />
					<vcount>
						3 3 3 3 3 3 3 3 3 3 3 3 
					</vcount>
					<p>
						3 0 1 1 2 3 7 4 5 5 6 7 11 8 9 9 10 11 15 12 13 13 14 15 19 16 17 17 18 19 23 20 21 21 22 23 
					</p>
				</polylist>
			</mesh>
		</geometry>
		<geometry id="meshId2" name="meshId2_name" >
			<mesh>
				<source id="meshId2-positions" name="meshId2-positions">
					<float_array id="meshId2-positions-array" count="144"> 
						6.444897 -10.024574 5.575905 7.596707 -10.024574 5.575905 7.596707 6.793524 5.575905 6.444897 6.793524 5.575905 6.444897 6.793524 5.575905 7.596707 6.793524 5.575905 7.596707 6.793524 4.424095 6.444897 6.793524 4.424095 6.444897 6.793524 4.424095 7.596707 6.793524 4.424095 7.596707 -10.024574 4.424095 6.444897 -10.024574 4.424095 6.444897 -10.024574 4.424095 7.596707 -10.024574 4.424095 7.596707 -10.024574 5.575905 6.444897 -10.024574 5.575905 7.596707 -10.024574 5.575905 7.596707 -10.024574 4.424095 7.596707 6.793524 4.424095 7.596707 6.793524 5.575905 6.444897 -10.024574 4.424095 6.444897 -10.024574 5.575905 6.444897 6.793524 5.575905 6.444897 6.793524 4.424095 -7.783062 -10.024574 5.575905 -6.631251 -10.024574 5.575905 -6.631251 6.793524 5.575905 -7.783062 6.793524 5.575905 -7.783062 6.793524 5.575905 -6.631251 6.793524 5.575905 -6.631251 6.793524 4.424095 -7.783062 6.793524 4.424095 -7.783062 6.793524 4.424095 -6.631251 6.793524 4.424095 -6.631251 -10.024574 4.424095 -7.783062 -10.024574 4.424095 -7.783062 -10.024574 4.424095 -6.631251 -10.024574 4.424095 -6.631251 -10.024574 5.575905 -7.783062 -10.024574 5.575905 -6.631251 -10.024574 5.575905 -6.631251 -10.024574 4.424095 -6.631251 6.793524 4.424095 -6.631251 6.793524 5.575905 -7.783062 -10.024574 4.424095 -7.783062 -10.024574 5.575905 -7.783062 6.793524 5.575905 -7.783062 6.793524 4.424095 
					</float_array>
					<technique_common>
						<accessor count="48" offset="0" source="#meshId2-positions-array" stride="3">
							<param name="X" type="float" />
							<param name="Y" type="float" />
							<param name="Z" type="float" />
						</accessor>
					</technique_common>
				</source>
				<source id="meshId2-normals" name="meshId2-normals">
					<float_array id="meshId2-normals-array" count="144"> 
						0.000000 0.000000 1.000000 0.000000 0.000000 1.000000 0.000000 0.000000 1.000000 0.000000 0.000000 1.000000 0.000000 1.000000 0.000000 0.000000 1.000000 0.000000 0.000000 1.000000 0.000000 0.000000 1.000000 0.000000 0.000000 0.000000 -1.000000 0.000000 0.000000 -1.000000 0.000000 0.000000 -1.000000 0.000000 0.000000 -1.000000 0.000000 -1.000000 0.000000 0.000000 -1.000000 0.000000 0.000000 -1.000000 0.000000 0.000000 -1.000000 0.000000 1.000000 0.000000 0.000000 1.000000 0.000000 0.000000 1.000000 0.000000 0.000000 1.000000 0.000000 0.000000 -1.000000 0.000000 0.000000 -1.000000 0.000000 0.000000 -1.000000 0.000000 0.000000 -1.000000 0.000000 0.000000 0.000000 0.000000 1.000000 0.000000 0.000000 1.000000 0.000000 0.000000 1.000000 0.000000 0.000000 1.000000 0.000000 1.000000 0.000000 0.000000 1.000000 0.000000 0.000000 1.000000 0.000000 0.000000 1.000000 0.000000 0.000000 0.000000 -1.000000 0.000000 0.000000 -1.000000 0.000000 0.000000 -1.000000 0.000000 0.000000 -1.000000 0.000000 -1.000000 0.000000 0.000000 -1.000000 0.000000 0.000000 -1.000000 0.000000 0.000000 -1.000000 0.000000 1.000000 0.000000 0.000000 1.000000 0.000000 0.000000 1.000000 0.000000 0.000000 1.000000 0.000000 0.000000 -1.000000 0.000000 0.000000 -1.000000 0.000000 0.000000 -1.000000 0.000000 0.000000 -1.000000 0.000000 0.000000 
					</float_array>
					<technique_common>
						<accessor count="48" offset="0" source="#meshId2-normals-array" stride="3">
							<param name="X" type="float" />
							<param name="Y" type="float" />
							<param name="Z" type="float" />
						</accessor>
					</technique_common>
				</source>
				<source id="meshId2-tangents" name="meshId2-tangents">
					<float_array id="meshId2-tangents-array" count="144"> 
						1.000000 0.000000 0.000000 1.000000 0.000000 0.000000 1.000000 0.000000 0.000000 1.000000 0.000000 0.000000 0.000000 0.000000 -1.000000 0.000000 0.000000 -1.000000 0.000000 0.000000 -1.000000 0.000000 0.000000 -1.000000 1.000000 0.000000 0.000000 1.000000 0.000000 0.000000 1.000000 0.000000 0.000000 1.000000 0.000000 0.000000 1.000000 0.000000 0.000000 1.000000 0.000000 0.000000 1.000000 0.000000 0.000000 1.000000 0.000000 0.000000 0.000000 0.000000 -1.000000 0.000000 0.000000 -1.000000 0.000000 0.000000 -1.000000 0.000000 0.000000 -1.000000 0.000000 0.000000 1.000000 0.000000 0.000000 1.000000 0.000000 0.000000 1.000000 0.000000 0.000000 1.000000 1.000000 0.000000 0.000000 1.000000 0.000000 0.000000 1.000000 0.000000 0.000000 1.000000 0.000000 0.000000 0.000001 0.000000 -1.000000 0.000001 0.000000 -1.000000 0.000000 0.000000 -1.000000 0.000001 0.000000 -1.000000 1.000000 0.000000 0.000000 1.000000 0.000000 0.000000 1.000000 0.000000 0.000000 1.000000 0.000000 0.000000 1.000000 0.000000 0.000000 1.000000 0.000000 0.000000 1.000000 0.000000 0.000000 1.000000 0.000000 0.000000 0.000000 0.000000 -1.000000 0.000000 0.000000 -1.000000 0.000000 0.000000 -1.000000 0.000000 0.000000 -1.000000 0.000000 0.000000 1.000000 0.000000 0.000000 1.000000 0.000000 0.000000 1.000000 0.000000 0.000000 1.000000 
					</float_array>
					<technique_common>
						<accessor count="48" offset="0" source="#meshId2-tangents-array" stride="3">
							<param name="X" type="float" />
							<param name="Y" type="float" />
							<param name="Z" type="float" />
						</accessor>
					</technique_common>
				</source>
				<source id="meshId2-bitangents" name="meshId2-bitangents">
					<float_array id="meshId2-bitangents-array" count="144"> 
						0.000000 1.000000 0.000000 0.000000 1.000000 0.000000 0.000000 1.000000 0.000000 0.000000 1.000000 0.000000 -1.000000 0.000000 0.000000 -1.000000 0.000000 0.000000 -1.000000 0.000000 0.000000 -1.000000 0.000000 0.000000 0.000000 -1.000000 0.000000 0.000000 -1.000000 0.000000 0.000000 -1.000000 0.000000 0.000000 -1.000000 0.000000 0.000000 0.000000 1.000000 0.000000 0.000000 1.000000 0.000000 0.000000 1.000000 0.000000 0.000000 1.000000 0.000000 1.000000 0.000000 0.000000 1.000000 0.000000 0.000000 1.000000 0.000000 0.000000 1.000000 0.000000 0.000000 1.000000 0.000000 0.000000 1.000000 0.000000 0.000000 1.000000 0.000000 0.000000 1.000000 0.000000 0.000000 1.000000 0.000000 0.000000 1.000000 0.000000 0.000000 1.000000 0.000000 0.000000 1.000000 0.000000 -1.000000 0.000000 -0.000001 -1.000000 0.000000 -0.000001 -1.000000 0.000000 0.000000 -1.000000 0.000000 -0.000001 0.000000 -1.000000 0.000000 0.000000 -1.000000 0.000000 0.000000 -1.000000 0.000000 0.000000 -1.000000 0.000000 0.000000 0.000000 1.000000 0.000000 0.000000 1.000000 0.000000 0.000000 1.000000 0.000000 0.000000 1.000000 0.000000 1.000000 0.000000 0.000000 1.000000 0.000000 0.000000 1.000000 0.000000 0.000000 1.000000 0.000000 0.000000 1.000000 0.000000 0.000000 1.000000 0.000000 0.000000 1.000000 0.000000 0.000000 1.000000 0.000000 
					</float_array>
					<technique_common>
						<accessor count="48" offset="0" source="#meshId2-bitangents-array" stride="3">
							<param name="X" type="float" />
							<param name="Y" type="float" />
							<param name="Z" type="float" />
						</accessor>
					</technique_common>
				</source>
				<source id="meshId2-tex0" name="meshId2-tex0">
					<float_array id="meshId2-tex0-array" count="96"> 
						0.685597 0.407249 0.712794 0.407249 0.712794 0.804357 0.685597 0.804357 0.068179 0.471853 0.068179 0.444656 0.095375 0.444656 0.095375 0.471853 0.714539 0.407249 0.741735 0.407249 0.741735 0.804357 0.714539 0.804357 0.391359 0.444511 0.418555 0.444511 0.418555 0.471707 0.391359 0.471707 0.685597 0.010141 0.712794 0.010141 0.712794 0.407249 0.685597 0.407249 0.772422 0.407249 0.799618 0.407249 0.799618 0.804357 0.772422 0.804357 0.772422 0.010141 0.799618 0.010141 0.799618 0.407249 0.772422 0.407249 0.010296 0.471270 0.010296 0.444074 0.037493 0.444074 0.037493 0.471270 0.743480 0.407249 0.770677 0.407249 0.770677 0.804357 0.743480 0.804357 0.039237 0.444365 0.066434 0.444365 0.066434 0.471562 0.039237 0.471562 0.714539 0.010141 0.741735 0.010141 0.741735 0.407249 0.714539 0.407249 0.743480 0.010141 0.770677 0.010141 0.770677 0.407249 0.743480 0.407249 
					</float_array>
					<technique_common>
						<accessor count="48" offset="0" source="#meshId2-tex0-array" stride="2">
							<param name="S" type="float" />
							<param name="T" type="float" />
						</accessor>
					</technique_common>
				</source>
				<vertices id="meshId2-vertices">
					<input semantic="POSITION" source="#meshId2-positions" />
				</vertices>
				<polylist count="24" material="defaultMaterial">
					<input offset="0" semantic="VERTEX" source="#meshId2-vertices" />
					<input offset="0" semantic="NORMAL" source="#meshId2-normals" />
					<input offset="0" semantic="TANGENT" source="#meshId2-tangents" />
					<input offset="0" semantic="BINORMAL" source="#meshId2-bitangents" />
					<input offset="0" semantic="TEXCOORD" source="#meshId2-tex0" set="0" />
					<vcount>
						3 3 3 3 3 3 3 3 3 3 3 3 3 3 3 3 3 3 3 3 3 3 3 3 
					</vcount>
					<p>
						3 0 1 1 2 3 7 4 5 5 6 7 11 8 9 9 10 11 15 12 13 13 14 15 19 16 17 17 18 19 23 20 21 21 22 23 27 24 25 25 26 27 31 28 29 29 30 31 35 32 33 33 34 35 39 36 37 37 38 39 43 40 41 41 42 43 47 44 45 45 46 47 
					</p>
				</polylist>
			</mesh>
		</geometry>
		<geometry id="meshId3" name="meshId3_name" >
			<mesh>
				<source id="meshId3-positions" name="meshId3-positions">
					<float_array id="meshId3-positions-array" count="72"> 
						-7.068027 -3.585742 5.391151 7.068027 -3.585742 5.391151 7.068027 5.492087 5.391151 -7.068027 5.492087 5.391151 -7.068027 5.492087 5.391151 7.068027 5.492087 5.391151 7.068028 5.492087 4.608850 -7.068028 5.492087 4.608850 -7.068028 5.492087 4.608850 7.068028 5.492087 4.608850 7.068028 -3.585742 4.608850 -7.068028 -3.585742 4.608850 -7.068028 -3.585742 4.608850 7.068028 -3.585742 4.608850 7.068027 -3.585742 5.391151 -7.068027 -3.585742 5.391151 7.068027 -3.585742 5.391151 7.068028 -3.585742 4.608850 7.068028 5.492087 4.608850 7.068027 5.492087 5.391151 -7.068028 -3.585742 4.608850 -7.068027 -3.585742 5.391151 -7.068027 5.492087 5.391151 -7.068028 5.492087 4.608850 
					</float_array>
					<technique_common>
						<accessor count="24" offset="0" source="#meshId3-positions-array" stride="3">
							<param name="X" type="float" />
							<param name="Y" type="float" />
							<param name="Z" type="float" />
						</accessor>
					</technique_common>
				</source>
				<source id="meshId3-normals" name="meshId3-normals">
					<float_array id="meshId3-normals-array" count="72"> 
						0.000000 0.000000 1.000000 0.000000 0.000000 1.000000 0.000000 0.000000 1.000000 0.000000 0.000000 1.000000 0.000000 1.000000 -0.000000 0.000000 1.000000 -0.000000 0.000000 1.000000 -0.000000 0.000000 1.000000 -0.000000 0.000000 0.000000 -1.000000 0.000000 0.000000 -1.000000 0.000000 0.000000 -1.000000 0.000000 0.000000 -1.000000 0.000000 -1.000000 0.000000 0.000000 -1.000000 0.000000 0.000000 -1.000000 0.000000 0.000000 -1.000000 0.000000 1.000000 0.000000 0.000002 1.000000 0.000000 0.000002 1.000000 0.000000 0.000002 1.000000 0.000000 0.000002 -1.000000 0.000000 0.000002 -1.000000 0.000000 0.000002 -1.000000 0.000000 0.000002 -1.000000 0.000000 0.000002 
					</float_array>
					<technique_common>
						<accessor count="24" offset="0" source="#meshId3-normals-array" stride="3">
							<param name="X" type="float" />
							<param name="Y" type="float" />
							<param name="Z" type="float" />
						</accessor>
					</technique_common>
				</source>
				<source id="meshId3-tangents" name="meshId3-tangents">
					<float_array id="meshId3-tangents-array" count="72"> 
						0.000000 1.000000 0.000000 0.000000 1.000000 0.000000 0.000000 1.000000 0.000000 0.000000 1.000000 0.000000 0.000001 -0.000000 -1.000000 -0.000001 -0.000000 -1.000000 -0.000001 -0.000000 -1.000000 0.000001 -0.000000 -1.000000 0.000000 -1.000000 0.000000 -0.000000 -1.000000 0.000000 -0.000000 -1.000000 0.000000 -0.000000 -1.000000 0.000000 -0.000001 0.000000 1.000000 0.000001 0.000000 1.000000 0.000001 0.000000 1.000000 -0.000001 0.000000 1.000000 0.000002 0.000000 -1.000000 0.000002 0.000000 -1.000000 0.000002 0.000000 -1.000000 0.000002 0.000000 -1.000000 0.000002 0.000000 1.000000 0.000002 0.000000 1.000000 0.000002 0.000000 1.000000 0.000002 0.000000 1.000000 
					</float_array>
					<technique_common>
						<accessor count="24" offset="0" source="#meshId3-tangents-array" stride="3">
							<param name="X" type="float" />
							<param name="Y" type="float" />
							<param name="Z" type="float" />
						</accessor>
					</technique_common>
				</source>
				<source id="meshId3-bitangents" name="meshId3-bitangents">
					<float_array id="meshId3-bitangents-array" count="72"> 
						-1.000000 0.000000 0.000000 -1.000000 0.000000 0.000000 -1.000000 0.000000 0.000000 -1.000000 0.000000 0.000000 -1.000000 -0.000000 -0.000001 -1.000000 0.000000 0.000001 -1.000000 0.000000 0.000001 -1.000000 -0.000000 -0.000001 -1.000000 -0.000000 -0.000000 -1.000000 0.000000 0.000000 -1.000000 0.000000 0.000000 -1.000000 0.000000 0.000000 -1.000000 -0.000000 -0.000001 -1.000000 0.000000 0.000001 -1.000000 0.000000 0.000001 -1.000000 -0.000000 -0.000001 0.000000 1.000000 0.000000 0.000000 1.000000 0.000000 0.000000 1.000000 0.000000 0.000000 1.000000 0.000000 0.000000 1.000000 0.000000 0.000000 1.000000 0.000000 0.000000 1.000000 0.000000 0.000000 1.000000 0.000000 
					</float_array>
					<technique_common>
						<accessor count="24" offset="0" source="#meshId3-bitangents-array" stride="3">
							<param name="X" type="float" />
							<param name="Y" type="float" />
							<param name="Z" type="float" />
						</accessor>
					</technique_common>
				</source>
				<source id="meshId3-tex0" name="meshId3-tex0">
					<float_array id="meshId3-tex0-array" count="48"> 
						0.174298 0.779199 0.174298 0.445419 0.388643 0.445419 0.388643 0.779199 0.907482 0.618578 0.907482 0.284798 0.925954 0.284798 0.925954 0.618578 0.468536 0.779199 0.468536 0.445419 0.682881 0.445419 0.682881 0.779199 0.926776 0.618578 0.926776 0.284798 0.945248 0.284798 0.945248 0.618578 0.449242 0.472230 0.467713 0.472230 0.467713 0.686575 0.449242 0.686575 0.415477 0.716563 0.433948 0.716563 0.433948 0.930908 0.415477 0.930908 
					</float_array>
					<technique_common>
						<accessor count="24" offset="0" source="#meshId3-tex0-array" stride="2">
							<param name="S" type="float" />
							<param name="T" type="float" />
						</accessor>
					</technique_common>
				</source>
				<vertices id="meshId3-vertices">
					<input semantic="POSITION" source="#meshId3-positions" />
				</vertices>
				<polylist count="12" material="defaultMaterial">
					<input offset="0" semantic="VERTEX" source="#meshId3-vertices" />
					<input offset="0" semantic="NORMAL" source="#meshId3-normals" />
					<input offset="0" semantic="TANGENT" source="#meshId3-tangents" />
					<input offset="0" semantic="BINORMAL" source="#meshId3-bitangents" />
					<input offset="0" semantic="TEXCOORD" source="#meshId3-tex0" set="0" />
					<vcount>
						3 3 3 3 3 3 3 3 3 3 3 3 
					</vcount>
					<p>
						3 0 1 1 2 3 7 4 5 5 6 7 11 8 9 9 10 11 15 12 13 13 14 15 19 16 17 17 18 19 23 20 21 21 22 23 
					</p>
				</polylist>
			</mesh>
		</geometry>
		<geometry id="meshId4" name="meshId4_name" >
			<mesh>
				<source id="meshId4-positions" name="meshId4-positions">
					<float_array id="meshId4-positions-array" count="288"> 
						7.331707 6.500000 10.775446 8.175597 6.500000 10.775446 8.175597 7.500000 10.775446 7.331707 7.500000 10.775446 7.331707 7.500000 10.775446 8.175597 7.500000 10.775446 8.175597 7.500000 -0.856692 7.331707 7.500000 -0.856692 7.331707 7.500000 -0.856692 8.175597 7.500000 -0.856692 8.175597 6.500000 -0.856692 7.331707 6.500000 -0.856692 7.331707 6.500000 -0.856692 8.175597 6.500000 -0.856692 8.175597 6.500000 10.775446 7.331707 6.500000 10.775446 8.175597 6.500000 10.775446 8.175597 6.500000 -0.856692 8.175597 7.500000 -0.856692 8.175597 7.500000 10.775446 7.331707 6.500000 -0.856692 7.331707 6.500000 10.775446 7.331707 7.500000 10.775446 7.331707 7.500000 -0.856692 -8.532779 6.500000 10.775446 -7.688889 6.500000 10.775446 -7.688889 7.500000 10.775446 -8.532779 7.500000 10.775446 -8.532779 7.500000 10.775446 -7.688889 7.500000 10.775446 -7.688889 7.500000 -0.856692 -8.532779 7.500000 -0.856692 -8.532779 7.500000 -0.856692 -7.688889 7.500000 -0.856692 -7.688889 6.500000 -0.856692 -8.532779 6.500000 -0.856692 -8.532779 6.500000 -0.856692 -7.688889 6.500000 -0.856692 -7.688889 6.500000 10.775446 -8.532779 6.500000 10.775446 -7.688889 6.500000 10.775446 -7.688889 6.500000 -0.856692 -7.688889 7.500000 -0.856692 -7.688889 7.500000 10.775446 -8.532779 6.500000 -0.856692 -8.532779 6.500000 10.775446 -8.532779 7.500000 10.775446 -8.532779 7.500000 -0.856692 2.688889 6.500000 10.775446 3.311111 6.500000 10.775446 3.311111 7.500000 10.775446 2.688889 7.500000 10.775446 2.688889 7.500000 10.775446 3.311111 7.500000 10.775446 3.311111 7.500000 -0.856692 2.688889 7.500000 -0.856692 2.688889 7.500000 -0.856692 3.311111 7.500000 -0.856692 3.311111 6.500000 -0.856692 2.688889 6.500000 -0.856692 2.688889 6.500000 -0.856692 3.311111 6.500000 -0.856692 3.311111 6.500000 10.775446 2.688889 6.500000 10.775446 
						3.311111 6.500000 10.775446 3.311111 6.500000 -0.856692 3.311111 7.500000 -0.856692 3.311111 7.500000 10.775446 2.688889 6.500000 -0.856692 2.688889 6.500000 10.775446 2.688889 7.500000 10.775446 2.688889 7.500000 -0.856692 -3.311111 6.500000 10.775446 -2.688889 6.500000 10.775446 -2.688889 7.500000 10.775446 -3.311111 7.500000 10.775446 -3.311111 7.500000 10.775446 -2.688889 7.500000 10.775446 -2.688889 7.500000 -0.856692 -3.311111 7.500000 -0.856692 -3.311111 7.500000 -0.856692 -2.688889 7.500000 -0.856692 -2.688889 6.500000 -0.856692 -3.311111 6.500000 -0.856692 -3.311111 6.500000 -0.856692 -2.688889 6.500000 -0.856692 -2.688889 6.500000 10.775446 -3.311111 6.500000 10.775446 -2.688889 6.500000 10.775446 -2.688889 6.500000 -0.856692 -2.688889 7.500000 -0.856692 -2.688889 7.500000 10.775446 -3.311111 6.500000 -0.856692 -3.311111 6.500000 10.775446 -3.311111 7.500000 10.775446 -3.311111 7.500000 -0.856692 
					</float_array>
					<technique_common>
						<accessor count="96" offset="0" source="#meshId4-positions-array" stride="3">
							<param name="X" type="float" />
							<param name="Y" type="float" />
							<param name="Z" type="float" />
						</accessor>
					</technique_common>
				</source>
				<source id="meshId4-normals" name="meshId4-normals">
					<float_array id="meshId4-normals-array" count="288"> 
						0.000000 0.000000 1.000000 0.000000 0.000000 1.000000 0.000000 0.000000 1.000000 0.000000 0.000000 1.000000 0.000000 1.000000 0.000000 0.000000 1.000000 0.000000 0.000000 1.000000 0.000000 0.000000 1.000000 0.000000 0.000000 0.000000 -1.000000 0.000000 0.000000 -1.000000 0.000000 0.000000 -1.000000 0.000000 0.000000 -1.000000 0.000000 -1.000000 0.000000 0.000000 -1.000000 0.000000 0.000000 -1.000000 0.000000 0.000000 -1.000000 0.000000 1.000000 0.000000 0.000000 1.000000 0.000000 0.000000 1.000000 0.000000 0.000000 1.000000 0.000000 0.000000 -1.000000 0.000000 0.000000 -1.000000 0.000000 0.000000 -1.000000 0.000000 0.000000 -1.000000 0.000000 0.000000 0.000000 0.000000 1.000000 0.000000 0.000000 1.000000 0.000000 0.000000 1.000000 0.000000 0.000000 1.000000 0.000000 1.000000 0.000000 0.000000 1.000000 0.000000 0.000000 1.000000 0.000000 0.000000 1.000000 0.000000 0.000000 0.000000 -1.000000 0.000000 0.000000 -1.000000 0.000000 0.000000 -1.000000 0.000000 0.000000 -1.000000 0.000000 -1.000000 0.000000 0.000000 -1.000000 0.000000 0.000000 -1.000000 0.000000 0.000000 -1.000000 0.000000 1.000000 0.000000 0.000000 1.000000 0.000000 0.000000 1.000000 0.000000 0.000000 1.000000 0.000000 0.000000 -1.000000 0.000000 0.000000 -1.000000 0.000000 0.000000 -1.000000 0.000000 0.000000 -1.000000 0.000000 0.000000 0.000000 0.000000 1.000000 0.000000 0.000000 1.000000 0.000000 0.000000 1.000000 0.000000 0.000000 1.000000 0.000000 1.000000 0.000000 0.000000 1.000000 0.000000 0.000000 1.000000 0.000000 0.000000 1.000000 0.000000 0.000000 0.000000 -1.000000 0.000000 0.000000 -1.000000 0.000000 0.000000 -1.000000 0.000000 0.000000 -1.000000 0.000000 -1.000000 0.000000 0.000000 -1.000000 0.000000 0.000000 -1.000000 0.000000 0.000000 -1.000000 0.000000 
						1.000000 0.000000 0.000000 1.000000 0.000000 0.000000 1.000000 0.000000 0.000000 1.000000 0.000000 0.000000 -1.000000 0.000000 0.000000 -1.000000 0.000000 0.000000 -1.000000 0.000000 0.000000 -1.000000 0.000000 0.000000 0.000000 0.000000 1.000000 0.000000 0.000000 1.000000 0.000000 0.000000 1.000000 0.000000 0.000000 1.000000 0.000000 1.000000 0.000000 0.000000 1.000000 0.000000 0.000000 1.000000 0.000000 0.000000 1.000000 0.000000 0.000000 0.000000 -1.000000 0.000000 0.000000 -1.000000 0.000000 0.000000 -1.000000 0.000000 0.000000 -1.000000 0.000000 -1.000000 0.000000 0.000000 -1.000000 0.000000 0.000000 -1.000000 0.000000 0.000000 -1.000000 0.000000 1.000000 0.000000 0.000000 1.000000 0.000000 0.000000 1.000000 0.000000 0.000000 1.000000 0.000000 0.000000 -1.000000 0.000000 0.000000 -1.000000 0.000000 0.000000 -1.000000 0.000000 0.000000 -1.000000 0.000000 0.000000 
					</float_array>
					<technique_common>
						<accessor count="96" offset="0" source="#meshId4-normals-array" stride="3">
							<param name="X" type="float" />
							<param name="Y" type="float" />
							<param name="Z" type="float" />
						</accessor>
					</technique_common>
				</source>
				<source id="meshId4-tangents" name="meshId4-tangents">
					<float_array id="meshId4-tangents-array" count="288"> 
						1.000000 0.000000 0.000000 1.000000 0.000000 0.000000 1.000000 0.000000 0.000000 1.000000 0.000000 0.000000 1.000000 0.000000 0.000000 1.000000 0.000000 0.000000 1.000000 0.000000 0.000000 1.000000 0.000000 0.000000 1.000000 -0.000002 0.000000 1.000000 -0.000002 0.000000 1.000000 -0.000002 0.000000 1.000000 -0.000002 0.000000 1.000000 0.000000 0.000000 1.000000 0.000000 0.000000 1.000000 0.000000 0.000000 1.000000 0.000000 0.000000 0.000000 1.000000 0.000000 0.000000 1.000000 0.000000 0.000000 1.000000 0.000000 0.000000 1.000000 0.000000 0.000000 1.000000 0.000000 0.000000 1.000000 0.000000 0.000000 1.000000 0.000000 0.000000 1.000000 0.000000 1.000000 0.000000 0.000000 1.000000 0.000000 0.000000 1.000000 0.000000 0.000000 1.000000 0.000000 0.000000 1.000000 0.000000 0.000000 1.000000 0.000000 0.000000 1.000000 0.000000 0.000000 1.000000 0.000000 0.000000 1.000000 0.000000 0.000000 1.000000 -0.000001 0.000000 1.000000 -0.000003 0.000000 1.000000 -0.000002 0.000000 1.000000 0.000000 0.000000 1.000000 0.000000 0.000000 1.000000 0.000000 0.000000 1.000000 0.000000 0.000000 0.000000 1.000000 0.000000 0.000000 1.000000 0.000000 0.000000 1.000000 0.000000 0.000000 1.000000 0.000000 0.000000 1.000000 0.000000 0.000000 1.000000 0.000000 0.000000 1.000000 0.000000 0.000000 1.000000 0.000000 1.000000 -0.000004 0.000000 1.000000 -0.000003 0.000000 1.000000 0.000000 0.000000 1.000000 -0.000001 0.000000 1.000000 0.000000 0.000000 1.000000 0.000000 0.000000 1.000000 0.000000 0.000000 1.000000 0.000000 0.000000 1.000000 0.000000 0.000000 1.000000 -0.000001 0.000000 1.000000 -0.000004 0.000000 1.000000 -0.000003 0.000000 1.000000 0.000000 0.000000 1.000000 0.000000 0.000000 1.000000 0.000000 0.000000 1.000000 0.000000 0.000000 
						0.000000 1.000000 0.000000 0.000000 1.000000 0.000000 0.000000 1.000000 0.000000 0.000000 1.000000 0.000000 0.000000 1.000000 0.000000 0.000000 1.000000 0.000000 0.000000 1.000000 0.000000 0.000000 1.000000 0.000000 1.000000 0.000000 0.000000 1.000000 0.000000 0.000000 1.000000 0.000000 0.000000 1.000000 0.000000 0.000000 1.000000 0.000000 0.000000 1.000000 0.000000 0.000000 1.000000 0.000000 0.000000 1.000000 0.000000 0.000000 1.000000 0.000000 0.000000 1.000000 0.000000 0.000000 1.000000 0.000000 0.000000 1.000000 0.000000 0.000000 1.000000 0.000000 0.000000 1.000000 0.000000 0.000000 1.000000 0.000000 0.000000 1.000000 0.000000 0.000000 0.000000 1.000000 0.000000 0.000000 1.000000 0.000000 0.000000 1.000000 0.000000 0.000000 1.000000 0.000000 0.000000 1.000000 0.000000 0.000000 1.000000 0.000000 0.000000 1.000000 0.000000 0.000000 1.000000 0.000000 
					</float_array>
					<technique_common>
						<accessor count="96" offset="0" source="#meshId4-tangents-array" stride="3">
							<param name="X" type="float" />
							<param name="Y" type="float" />
							<param name="Z" type="float" />
						</accessor>
					</technique_common>
				</source>
				<source id="meshId4-bitangents" name="meshId4-bitangents">
					<float_array id="meshId4-bitangents-array" count="288"> 
						0.000000 1.000000 0.000000 0.000000 1.000000 0.000000 0.000000 1.000000 0.000000 0.000000 1.000000 0.000000 0.000000 0.000000 -1.000000 0.000000 0.000000 -1.000000 0.000000 0.000000 -1.000000 0.000000 0.000000 -1.000000 -0.000002 -1.000000 -0.000000 -0.000002 -1.000000 -0.000000 -0.000002 -1.000000 -0.000000 -0.000002 -1.000000 -0.000000 0.000000 0.000000 1.000000 0.000000 0.000000 1.000000 0.000000 0.000000 1.000000 0.000000 0.000000 1.000000 0.000000 0.000000 1.000000 0.000000 0.000000 1.000000 0.000000 0.000000 1.000000 0.000000 0.000000 1.000000 0.000000 0.000000 -1.000000 0.000000 0.000000 -1.000000 0.000000 0.000000 -1.000000 0.000000 0.000000 -1.000000 0.000000 1.000000 0.000000 0.000000 1.000000 0.000000 0.000000 1.000000 0.000000 0.000000 1.000000 0.000000 0.000000 0.000000 -1.000000 0.000000 0.000000 -1.000000 0.000000 0.000000 -1.000000 0.000000 0.000000 -1.000000 0.000000 -1.000000 0.000000 -0.000001 -1.000000 -0.000000 -0.000003 -1.000000 -0.000000 -0.000002 -1.000000 -0.000000 0.000000 0.000000 1.000000 0.000000 0.000000 1.000000 0.000000 0.000000 1.000000 0.000000 0.000000 1.000000 0.000000 0.000000 1.000000 0.000000 0.000000 1.000000 0.000000 0.000000 1.000000 0.000000 0.000000 1.000000 0.000000 0.000000 -1.000000 0.000000 0.000000 -1.000000 0.000000 0.000000 -1.000000 0.000000 0.000000 -1.000000 0.000004 1.000000 0.000000 0.000003 1.000000 0.000000 0.000000 1.000000 0.000000 0.000001 1.000000 0.000000 0.000000 0.000000 -1.000000 0.000000 0.000000 -1.000000 0.000000 0.000000 -1.000000 0.000000 0.000000 -1.000000 0.000000 -1.000000 0.000000 -0.000001 -1.000000 -0.000000 -0.000004 -1.000000 -0.000000 -0.000003 -1.000000 -0.000000 0.000000 0.000000 1.000000 0.000000 0.000000 1.000000 0.000000 0.000000 1.000000 0.000000 0.000000 1.000000 
						0.000000 0.000000 1.000000 0.000000 0.000000 1.000000 0.000000 0.000000 1.000000 0.000000 0.000000 1.000000 0.000000 0.000000 -1.000000 0.000000 0.000000 -1.000000 0.000000 0.000000 -1.000000 0.000000 0.000000 -1.000000 0.000000 1.000000 0.000000 0.000000 1.000000 0.000000 0.000000 1.000000 0.000000 0.000000 1.000000 0.000000 0.000000 0.000000 -1.000000 0.000000 0.000000 -1.000000 0.000000 0.000000 -1.000000 0.000000 0.000000 -1.000000 0.000000 -1.000000 0.000000 0.000000 -1.000000 0.000000 0.000000 -1.000000 0.000000 0.000000 -1.000000 0.000000 0.000000 0.000000 1.000000 0.000000 0.000000 1.000000 0.000000 0.000000 1.000000 0.000000 0.000000 1.000000 0.000000 0.000000 1.000000 0.000000 0.000000 1.000000 0.000000 0.000000 1.000000 0.000000 0.000000 1.000000 0.000000 0.000000 -1.000000 0.000000 0.000000 -1.000000 0.000000 0.000000 -1.000000 0.000000 0.000000 -1.000000 
					</float_array>
					<technique_common>
						<accessor count="96" offset="0" source="#meshId4-bitangents-array" stride="3">
							<param name="X" type="float" />
							<param name="Y" type="float" />
							<param name="Z" type="float" />
						</accessor>
					</technique_common>
				</source>
				<source id="meshId4-tex0" name="meshId4-tex0">
					<float_array id="meshId4-tex0-array" count="192"> 
						0.106768 0.518656 0.126694 0.518656 0.126694 0.542268 0.106768 0.542268 0.010296 0.679364 0.030222 0.679364 0.030222 0.954021 0.010296 0.954021 0.401006 0.471707 0.420932 0.471707 0.420932 0.495319 0.401006 0.495319 0.391359 0.663779 0.411285 0.663779 0.411285 0.938437 0.391359 0.938437 0.859246 0.284798 0.859246 0.010141 0.882858 0.010141 0.882858 0.284798 0.883364 0.284798 0.883364 0.010141 0.906976 0.010141 0.906976 0.284798 0.015120 0.496639 0.035046 0.496639 0.035046 0.520251 0.015120 0.520251 0.931600 0.010141 0.951526 0.010141 0.951526 0.284798 0.931600 0.284798 0.391359 0.495319 0.411285 0.495319 0.411285 0.518931 0.391359 0.518931 0.921953 0.618578 0.941879 0.618578 0.941879 0.893236 0.921953 0.893236 0.859246 0.559456 0.859246 0.284798 0.882858 0.284798 0.882858 0.559456 0.883364 0.559456 0.883364 0.284798 0.906976 0.284798 0.906976 0.559456 0.087473 0.536016 0.102165 0.536016 0.102165 0.559628 0.087473 0.559628 0.082650 0.682723 0.097342 0.682723 0.097342 0.957380 0.082650 0.957380 0.391359 0.518931 0.406051 0.518931 0.406051 0.542543 0.391359 0.542543 0.101944 0.700083 0.116636 0.700083 0.116636 0.974740 0.101944 0.974740 
						0.883364 0.834113 0.883364 0.559456 0.906976 0.559456 0.906976 0.834113 0.150180 0.803587 0.150180 0.528929 0.173792 0.528929 0.173792 0.803587 0.425124 0.548626 0.439816 0.548626 0.439816 0.572238 0.425124 0.572238 0.130886 0.691458 0.145577 0.691458 0.145577 0.966115 0.130886 0.966115 0.429948 0.525014 0.444639 0.525014 0.444639 0.548626 0.429948 0.548626 0.975012 0.443805 0.989704 0.443805 0.989704 0.718462 0.975012 0.718462 0.907482 0.284798 0.907482 0.010141 0.931094 0.010141 0.931094 0.284798 0.859246 0.834113 0.859246 0.559456 0.882858 0.559456 0.882858 0.834113 
					</float_array>
					<technique_common>
						<accessor count="96" offset="0" source="#meshId4-tex0-array" stride="2">
							<param name="S" type="float" />
							<param name="T" type="float" />
						</accessor>
					</technique_common>
				</source>
				<vertices id="meshId4-vertices">
					<input semantic="POSITION" source="#meshId4-positions" />
				</vertices>
				<polylist count="48" material="defaultMaterial">
					<input offset="0" semantic="VERTEX" source="#meshId4-vertices" />
					<input offset="0" semantic="NORMAL" source="#meshId4-normals" />
					<input offset="0" semantic="TANGENT" source="#meshId4-tangents" />
					<input offset="0" semantic="BINORMAL" source="#meshId4-bitangents" />
					<input offset="0" semantic="TEXCOORD" source="#meshId4-tex0" set="0" />
					<vcount>
						3 3 3 3 3 3 3 3 3 3 3 3 3 3 3 3 3 3 3 3 3 3 3 3 3 3 3 3 3 3 3 3 3 3 3 3 3 3 3 3 3 3 3 3 3 3 3 3 
					</vcount>
					<p>
						3 0 1 1 2 3 7 4 5 5 6 7 11 8 9 9 10 11 15 12 13 13 14 15 19 16 17 17 18 19 23 20 21 21 22 23 27 24 25 25 26 27 31 28 29 29 30 31 35 32 33 33 34 35 39 36 37 37 38 39 43 40 41 41 42 43 47 44 45 45 46 47 51 48 49 49 50 51 55 52 53 53 54 55 59 56 57 57 58 59 63 60 61 61 62 63 67 64 65 65 66 67 71 68 69 69 70 71 75 72 73 73 74 75 79 76 77 77 78 79 83 80 81 81 82 83 87 84 85 85 86 87 91 88 89 89 90 91 95 92 93 93 94 95 
					</p>
				</polylist>
			</mesh>
		</geometry>
		<geometry id="meshId5" name="meshId5_name" >
			<mesh>
				<source id="meshId5-positions" name="meshId5-positions">
					<float_array id="meshId5-positions-array" count="144"> 
						-8.311111 6.499997 10.000002 -7.688889 6.499997 10.000002 -7.688889 7.500003 9.999998 -8.311111 7.500003 9.999998 -8.311111 7.500003 9.999998 -7.688889 7.500003 9.999998 -7.688890 3.001176 5.000000 -8.311113 3.001176 5.000000 -8.311113 3.001176 5.000000 -7.688890 3.001176 5.000000 -7.688890 2.001176 5.000000 -8.311113 2.001176 5.000000 -8.311113 2.001176 5.000000 -7.688890 2.001176 5.000000 -7.688889 6.499997 10.000002 -8.311111 6.499997 10.000002 -7.688889 6.499997 10.000002 -7.688890 2.001176 5.000000 -7.688890 3.001176 5.000000 -7.688889 7.500003 9.999998 -8.311113 2.001176 5.000000 -8.311111 6.499997 10.000002 -8.311111 7.500003 9.999998 -8.311113 3.001176 5.000000 7.425946 6.499997 10.000002 8.048168 6.499997 10.000002 8.048168 7.500003 9.999998 7.425946 7.500003 9.999998 7.425946 7.500003 9.999998 8.048168 7.500003 9.999998 8.048166 3.001176 5.000000 7.425944 3.001176 5.000000 7.425944 3.001176 5.000000 8.048166 3.001176 5.000000 8.048166 2.001176 5.000000 7.425944 2.001176 5.000000 7.425944 2.001176 5.000000 8.048166 2.001176 5.000000 8.048168 6.499997 10.000002 7.425946 6.499997 10.000002 8.048168 6.499997 10.000002 8.048166 2.001176 5.000000 8.048166 3.001176 5.000000 8.048168 7.500003 9.999998 7.425944 2.001176 5.000000 7.425946 6.499997 10.000002 7.425946 7.500003 9.999998 7.425944 3.001176 5.000000 
					</float_array>
					<technique_common>
						<accessor count="48" offset="0" source="#meshId5-positions-array" stride="3">
							<param name="X" type="float" />
							<param name="Y" type="float" />
							<param name="Z" type="float" />
						</accessor>
					</technique_common>
				</source>
				<source id="meshId5-normals" name="meshId5-normals">
					<float_array id="meshId5-normals-array" count="144"> 
						0.000000 0.000004 1.000000 0.000000 0.000004 1.000000 0.000000 0.000004 1.000000 0.000000 0.000004 1.000000 0.000000 0.743381 -0.668868 0.000000 0.743381 -0.668868 0.000000 0.743381 -0.668868 0.000000 0.743381 -0.668868 0.000000 0.000000 -1.000000 0.000000 0.000000 -1.000000 0.000000 0.000000 -1.000000 0.000000 0.000000 -1.000000 0.000000 -0.743381 0.668868 0.000000 -0.743381 0.668868 0.000000 -0.743381 0.668868 0.000000 -0.743381 0.668868 1.000000 -0.000000 -0.000000 1.000000 -0.000000 -0.000000 1.000000 -0.000000 -0.000000 1.000000 -0.000000 -0.000000 -1.000000 0.000000 0.000000 -1.000000 0.000000 0.000000 -1.000000 0.000000 0.000000 -1.000000 0.000000 0.000000 0.000000 0.000004 1.000000 0.000000 0.000004 1.000000 0.000000 0.000004 1.000000 0.000000 0.000004 1.000000 0.000000 0.743381 -0.668869 0.000000 0.743381 -0.668869 0.000000 0.743381 -0.668869 0.000000 0.743381 -0.668869 0.000000 0.000000 -1.000000 0.000000 0.000000 -1.000000 0.000000 0.000000 -1.000000 0.000000 0.000000 -1.000000 0.000000 -0.743382 0.668868 0.000000 -0.743382 0.668868 0.000000 -0.743382 0.668868 0.000000 -0.743382 0.668868 1.000000 -0.000000 -0.000000 1.000000 -0.000000 -0.000000 1.000000 -0.000000 -0.000000 1.000000 -0.000000 -0.000000 -1.000000 0.000000 0.000000 -1.000000 0.000000 0.000000 -1.000000 0.000000 0.000000 -1.000000 0.000000 0.000000 
					</float_array>
					<technique_common>
						<accessor count="48" offset="0" source="#meshId5-normals-array" stride="3">
							<param name="X" type="float" />
							<param name="Y" type="float" />
							<param name="Z" type="float" />
						</accessor>
					</technique_common>
				</source>
				<source id="meshId5-tangents" name="meshId5-tangents">
					<float_array id="meshId5-tangents-array" count="144"> 
						1.000000 0.000000 0.000000 1.000000 0.000000 0.000000 1.000000 0.000000 0.000000 1.000000 0.000000 0.000000 0.999936 0.007555 0.008396 0.999936 0.007555 0.008396 0.999936 0.007555 0.008396 0.999936 0.007555 0.008396 0.999936 0.011295 0.000000 0.999936 0.011295 0.000000 0.999936 0.011295 0.000000 0.999936 0.011295 0.000000 1.000000 0.000000 0.000000 1.000000 0.000000 0.000000 1.000000 0.000000 0.000000 1.000000 0.000000 0.000000 -0.000000 0.000001 -1.000000 -0.000000 0.000000 -1.000000 -0.000000 0.000000 -1.000000 -0.000000 0.000001 -1.000000 0.000000 0.000000 1.000000 0.000000 -0.000000 1.000000 0.000000 -0.000000 1.000000 0.000000 0.000000 1.000000 1.000000 0.000000 0.000000 1.000000 0.000000 0.000000 1.000000 0.000000 0.000000 1.000000 0.000000 0.000000 0.999936 0.007555 0.008396 0.999936 0.007555 0.008396 0.999936 0.007555 0.008396 0.999936 0.007555 0.008396 0.999936 0.011295 0.000000 0.999936 0.011295 0.000000 0.999936 0.011295 0.000000 0.999936 0.011295 0.000000 1.000000 0.000000 0.000000 1.000000 0.000000 0.000000 1.000000 0.000000 0.000000 1.000000 0.000000 0.000000 -0.000000 0.000001 -1.000000 -0.000000 0.000001 -1.000000 -0.000000 0.000001 -1.000000 -0.000000 0.000001 -1.000000 0.000000 0.000000 1.000000 0.000000 -0.000000 1.000000 0.000000 -0.000000 1.000000 0.000000 0.000000 1.000000 
					</float_array>
					<technique_common>
						<accessor count="48" offset="0" source="#meshId5-tangents-array" stride="3">
							<param name="X" type="float" />
							<param name="Y" type="float" />
							<param name="Z" type="float" />
						</accessor>
					</technique_common>
				</source>
				<source id="meshId5-bitangents" name="meshId5-bitangents">
					<float_array id="meshId5-bitangents-array" count="144"> 
						0.000000 1.000000 -0.000004 0.000000 1.000000 -0.000004 0.000000 1.000000 -0.000004 0.000000 1.000000 -0.000004 0.011295 -0.668826 -0.743333 0.011295 -0.668826 -0.743333 0.011295 -0.668826 -0.743333 0.011295 -0.668826 -0.743333 0.011295 -0.999936 0.000000 0.011295 -0.999936 0.000000 0.011295 -0.999936 0.000000 0.011295 -0.999936 0.000000 0.000000 0.668868 0.743381 0.000000 0.668868 0.743381 0.000000 0.668868 0.743381 0.000000 0.668868 0.743381 0.000000 1.000000 0.000001 0.000000 1.000000 0.000000 0.000000 1.000000 -0.000000 0.000000 1.000000 0.000001 -0.000000 1.000000 -0.000000 0.000000 1.000000 0.000000 0.000000 1.000000 0.000000 -0.000000 1.000000 -0.000000 0.000000 1.000000 -0.000004 0.000000 1.000000 -0.000004 0.000000 1.000000 -0.000004 0.000000 1.000000 -0.000004 0.011295 -0.668826 -0.743333 0.011295 -0.668826 -0.743333 0.011295 -0.668826 -0.743333 0.011295 -0.668826 -0.743333 0.011295 -0.999936 0.000000 0.011295 -0.999936 0.000000 0.011295 -0.999936 0.000000 0.011295 -0.999936 0.000000 0.000000 0.668868 0.743382 0.000000 0.668868 0.743382 0.000000 0.668868 0.743382 0.000000 0.668868 0.743382 0.000000 1.000000 0.000001 0.000000 1.000000 0.000001 0.000000 1.000000 0.000001 0.000000 1.000000 0.000001 -0.000000 1.000000 -0.000000 0.000000 1.000000 0.000000 0.000000 1.000000 0.000000 -0.000000 1.000000 -0.000000 
					</float_array>
					<technique_common>
						<accessor count="48" offset="0" source="#meshId5-bitangents-array" stride="3">
							<param name="X" type="float" />
							<param name="Y" type="float" />
							<param name="Z" type="float" />
						</accessor>
					</technique_common>
				</source>
				<source id="meshId5-tex0" name="meshId5-tex0">
					<float_array id="meshId5-tex0-array" count="96"> 
						0.839952 0.881235 0.854644 0.881235 0.854644 0.904847 0.839952 0.904847 0.803424 0.722420 0.818115 0.722586 0.816321 0.881390 0.801630 0.881225 0.801630 0.881225 0.816321 0.881390 0.816054 0.905001 0.801363 0.904835 0.839952 0.722420 0.854644 0.722420 0.854644 0.881235 0.839952 0.881235 0.044061 0.551499 0.162121 0.445273 0.162121 0.468885 0.044061 0.575111 0.010296 0.576615 0.128356 0.682841 0.128356 0.706453 0.010296 0.600227 0.034414 0.890962 0.049106 0.890962 0.049106 0.914575 0.034414 0.914575 0.822718 0.722420 0.837409 0.722586 0.835615 0.881390 0.820924 0.881225 0.820924 0.881225 0.835615 0.881390 0.835348 0.905001 0.820658 0.904835 0.034414 0.732148 0.049106 0.732148 0.049106 0.890962 0.034414 0.890962 0.010296 0.551159 0.128356 0.444933 0.128356 0.468545 0.010296 0.574771 0.024767 0.561683 0.142827 0.667909 0.142826 0.691521 0.024767 0.585295 
					</float_array>
					<technique_common>
						<accessor count="48" offset="0" source="#meshId5-tex0-array" stride="2">
							<param name="S" type="float" />
							<param name="T" type="float" />
						</accessor>
					</technique_common>
				</source>
				<vertices id="meshId5-vertices">
					<input semantic="POSITION" source="#meshId5-positions" />
				</vertices>
				<polylist count="24" material="defaultMaterial">
					<input offset="0" semantic="VERTEX" source="#meshId5-vertices" />
					<input offset="0" semantic="NORMAL" source="#meshId5-normals" />
					<input offset="0" semantic="TANGENT" source="#meshId5-tangents" />
					<input offset="0" semantic="BINORMAL" source="#meshId5-bitangents" />
					<input offset="0" semantic="TEXCOORD" source="#meshId5-tex0" set="0" />
					<vcount>
						3 3 3 3 3 3 3 3 3 3 3 3 3 3 3 3 3 3 3 3 3 3 3 3 
					</vcount>
					<p>
						3 0 1 1 2 3 7 4 5 5 6 7 11 8 9 9 10 11 15 12 13 13 14 15 19 16 17 17 18 19 23 20 21 21 22 23 27 24 25 25 26 27 31 28 29 29 30 31 35 32 33 33 34 35 39 36 37 37 38 39 43 40 41 41 42 43 47 44 45 45 46 47 
					</p>
				</polylist>
			</mesh>
		</geometry>
	</library_geometries>
	<library_visual_scenes>
		<visual_scene id="RootNode" name="RootNode">
			<node id="pCube14" name="pCube14">
				<matrix>1.000000 0.000000 0.000000 0.000000 0.000000 1.000000 0.000000 0.000000 0.000000 0.000000 1.000000 0.000000 0.000000 0.000000 0.000000 1.000000</matrix>
				<instance_geometry url="#meshId0">
					<bind_material>
						<technique_common>
							<instance_material symbol="defaultMaterial" target="#roof" />
						</technique_common>
					</bind_material>
				</instance_geometry>
				<instance_geometry url="#meshId1">
					<bind_material>
						<technique_common>
							<instance_material symbol="defaultMaterial" target="#horizontal_post" />
						</technique_common>
					</bind_material>
				</instance_geometry>
				<instance_geometry url="#meshId2">
					<bind_material>
						<technique_common>
							<instance_material symbol="defaultMaterial" target="#vertical_posts" />
						</technique_common>
					</bind_material>
				</instance_geometry>
				<instance_geometry url="#meshId3">
					<bind_material>
						<technique_common>
							<instance_material symbol="defaultMaterial" target="#sign_background" />
						</technique_common>
					</bind_material>
				</instance_geometry>
				<instance_geometry url="#meshId4">
					<bind_material>
						<technique_common>
							<instance_material symbol="defaultMaterial" target="#top_posts" />
						</technique_common>
					</bind_material>
				</instance_geometry>
				<instance_geometry url="#meshId5">
					<bind_material>
						<technique_common>
							<instance_material symbol="defaultMaterial" target="#sidewyas_posts" />
						</technique_common>
					</bind_material>
				</instance_geometry>
			</node>
		</visual_scene>
	</library_visual_scenes>
	<scene>
		<instance_visual_scene url="#RootNode" />
	</scene>
</COLLADA>
